<?xml version="1.0" standalone="no"?>
<!DOCTYPE svg PUBLIC "-//W3C//DTD SVG 20010904//EN"
 "http://www.w3.org/TR/2001/REC-SVG-20010904/DTD/svg10.dtd">
<svg version="1.0" xmlns="http://www.w3.org/2000/svg"
 width="1308.000000pt" height="1308.000000pt" viewBox="0 0 1308.000000 1308.000000"
 preserveAspectRatio="xMidYMid meet">
<metadata>
Created by potrace 1.11, written by Peter Selinger 2001-2013
</metadata>
<g transform="translate(0.000000,1308.000000) scale(0.100000,-0.100000)"
fill="#000000" stroke="none">
<path d="M0 6540 l0 -6540 6540 0 6540 0 0 6540 0 6540 -6540 0 -6540 0 0
-6540z m7132 3209 c554 -60 904 -392 993 -944 13 -77 15 -489 15 -2972 l0
-2883 -992 0 c-1073 0 -1097 1 -1293 55 -581 158 -906 591 -955 1273 -6 84
-10 1055 -10 2517 0 2314 -1 2381 -19 2422 -24 52 -63 78 -116 78 -54 0 -92
-27 -118 -83 l-22 -47 -6 -2500 -5 -2500 -22 -111 c-116 -599 -452 -946 -1042
-1076 l-105 -23 -1035 0 -1035 0 -3 2820 c-2 2009 0 2856 8 2944 55 606 419
972 1030 1034 19 2 1069 5 2332 5 1622 2 2327 -1 2400 -9z m4588 -1068 c0
-1173 1 -1157 -56 -1308 -102 -271 -358 -553 -610 -674 -144 -68 -364 -125
-574 -148 -56 -6 -492 -11 -1062 -13 l-968 -3 0 1040 c-1 697 2 1062 9 1106
46 284 179 532 397 739 210 200 442 309 709 333 22 2 516 4 1098 5 l1057 2 0
-1079z m-1120 -2539 c259 -49 447 -117 591 -214 172 -115 390 -380 459 -559
70 -182 64 -77 68 -1306 l3 -1113 -1073 0 c-896 0 -1088 3 -1164 15 -168 27
-298 77 -443 171 -116 76 -309 270 -388 390 -109 167 -184 375 -200 561 -4 49
-7 537 -5 1086 l3 998 1017 -4 c995 -3 1019 -4 1132 -25z"/>
</g>
</svg>
